<svg width="120" height="40" viewBox="0 0 120 40" fill="none" xmlns="http://www.w3.org/2000/svg">
  <!-- b shape from bpay-logo2.svg -->
  <path d="M18 35C15.7909 35 14 33.2091 14 31V5C16.2091 5 18 6.79086 18 9V35Z" fill="white"/>
  <path d="M20 35V15C22.2091 15 24 16.7909 24 19V31C24 33.2091 22.2091 35 20 35Z" fill="white"/>
  
  <!-- Added bPay text -->
  <path d="M30 25V15H33V16.5C33.5 15.5 35 15 36 15C38 15 39.5 16 39.5 19V25H36.5V19.5C36.5 18 36 17.5 35 17.5C34 17.5 33 18 33 19.5V25H30Z" fill="white"/>
  <path d="M42 25V15H45V16C45.5 15 46.5 15 47.5 15C48.5 15 49 15.2 49.5 15.5C50.5 16 50.8 17 51 17.5C51.5 16 53 15 54.5 15C56.5 15 58 16.5 58 19V25H55V19.5C55 18 54.5 17.5 53.5 17.5C52.5 17.5 51.5 18 51.5 19.5V25H48.5V19.5C48.5 18 48 17.5 47 17.5C46 17.5 45 18 45 19.5V25H42Z" fill="white"/>
  <path d="M60 25V10H63V16C63.5 15 65 15 66 15C68 15 69.5 16 69.5 19V25H66.5V19.5C66.5 18 66 17.5 65 17.5C64 17.5 63 18 63 19.5V25H60Z" fill="white"/>
  <path d="M72 21.5L72 18H74V15H72V13H75V10H78V13H80V15H78V20C78 21 78.5 21.5 79.5 21.5H80V24.5H78.5C75.5 24.5 74.5 23 74.5 21V15H72V18" fill="white"/>
</svg>
